<svg xmlns="http://www.w3.org/2000/svg" viewBox="0 0 64 64">
  <rect width="64" height="64" rx="18" fill="#1f1d18"/>
  <path d="M32 10c8.2 0 14.8 6.6 14.8 14.8 0 6.2-3.8 11.4-9.3 13.7v7.5h6.8v7H19.7v-7h6.8v-7.5c-5.5-2.3-9.3-7.5-9.3-13.7C17.2 16.6 23.8 10 32 10Zm0 7.2c-4.2 0-7.6 3.4-7.6 7.6s3.4 7.6 7.6 7.6 7.6-3.4 7.6-7.6-3.4-7.6-7.6-7.6Z" fill="#ede6d4"/>
  <path d="M32 17.2c4.2 0 7.6 3.4 7.6 7.6s-3.4 7.6-7.6 7.6-7.6-3.4-7.6-7.6 3.4-7.6 7.6-7.6Z" fill="#214734"/>
  <circle cx="32" cy="24.8" r="3.1" fill="#d7b56d"/>
</svg>
